<svg viewBox="0 0 216 130" xmlns="http://www.w3.org/2000/svg" class="Logo-icon"><path d="M84.477 76.382c-4.294 0-7.15-.798-8.566-2.394a4.009 4.009 0 01-1.116-1.907c-.07-.41-.11-.825-.121-1.24a3.276 3.276 0 01.077-.779c.55-2.49 2.14-5.14 4.77-7.95a69.851 69.851 0 019.697-8.499 150.558 150.558 0 0112.084-8.027 79.503 79.503 0 00-7.977-4.379c-11.742-5.702-17.614-11.781-17.614-18.239a9.933 9.933 0 01.161-1.8c.556-2.92 2.073-5.577 4.551-7.974a37.802 37.802 0 018.985-6.363 64.823 64.823 0 0110.719-4.437C105.27.798 109.509 0 112.845 0c3.79 0 5.686 1.148 5.686 3.444a3.92 3.92 0 01-.863 2.365 15.1 15.1 0 01-2.962 2.987 1.57 1.57 0 01-2.129-.214 1.543 1.543 0 01-.322-.944 1.46 1.46 0 01.536-1.158c1.832-1.54 2.748-2.562 2.748-3.065-.36-.287-1.169-.433-2.436-.433-3.703 0-8.454.996-14.252 2.987a59.224 59.224 0 00-9.35 4.209 31.735 31.735 0 00-7.49 5.638c-2.153 2.27-3.248 4.61-3.284 7.02 0 5.255 5.298 10.482 15.894 15.68a76.942 76.942 0 019.536 5.352c5.262-3.029 9.873-5.453 13.833-7.273 3.96-1.82 6.489-2.73 7.586-2.73a1.276 1.276 0 01.975.458c.251.263.396.61.404.973a1.41 1.41 0 01-.458 1.129 1.559 1.559 0 01-1.076.404c-.975.107-3.163.978-6.564 2.612-3.401 1.635-7.383 3.76-11.947 6.373 2.855 2.225 4.921 4.334 6.198 6.325 1.276 1.992 1.959 3.493 2.046 4.505.093 1.022.137 1.703.137 2.044a8.959 8.959 0 01-.648 3.468 14.669 14.669 0 01-4.741 6.12 32.035 32.035 0 01-7.796 4.452 49.54 49.54 0 01-9.107 2.715 44.41 44.41 0 01-8.541.915l.019.024zm.331-2.944a42.263 42.263 0 0013.04-2.315 36.38 36.38 0 008.823-4.194c2.56-1.706 4.288-3.644 5.185-5.814a6.914 6.914 0 00.458-2.471c0-3.532-2.721-7.262-8.162-11.19a176.144 176.144 0 00-12 7.813 75.275 75.275 0 00-9.756 8.14c-2.64 2.656-4.203 5.06-4.687 7.21a.805.805 0 00-.053.32c0 .847.789 1.5 2.367 1.947 1.57.382 3.18.563 4.795.54M134.181 52.93a2.173 2.173 0 01-1.628-.716 2.623 2.623 0 01-.77-1.625 17.63 17.63 0 01-.082-1.319c.006-.847.079-1.693.219-2.53l-1.462 1.699a18.544 18.544 0 01-1.618 1.76 6.36 6.36 0 01-1.978 1.426c-.429.2-.888.323-1.359.365a2.558 2.558 0 01-1.564-.57 3.608 3.608 0 01-.975-2.714c.069-1.879.539-3.722 1.379-5.405a18.097 18.097 0 013.766-5.517c1.116-1.09 2.247-1.64 3.411-1.64 1.438 0 2.549.755 3.343 2.258h.375a1.59 1.59 0 011.238.593c.214.217.348.5.38.803a2.519 2.519 0 01-.351 1.051c-1.205 3.912-1.806 6.78-1.803 8.606v.244a21.662 21.662 0 004.522-3.858c1.744-1.84 3.235-3.549 4.473-5.128.18-.263.447-.452.755-.535.151-.029.304-.047.458-.054.323.006.635.12.887.321.262.172.449.436.526.74.02.139.033.278.039.418-.002.35-.114.69-.322.973-.289.373-1.055 1.296-2.3 2.768a55.323 55.323 0 01-4.273 4.467 13.504 13.504 0 01-4.385 2.987 2.624 2.624 0 01-.862.16l-.039-.029zm-8.245-4.195c.429-.214 1.183-.948 2.261-2.203 2.225-2.618 3.716-4.43 4.473-5.435a1.12 1.12 0 01-.161-.38 3.604 3.604 0 00-.365-.972c-.1-.262-.29-.48-.536-.613h-.024c-.52 0-1.301.61-2.344 1.829a14.915 14.915 0 00-2.505 4.315 10.875 10.875 0 00-.808 3.43"></path><path d="M158.479 53.979a2.392 2.392 0 01-1.023-.243 2.62 2.62 0 01-1.462-1.844 10.487 10.487 0 01-.243-2.112 13.98 13.98 0 01.779-4.544c.261-.762.46-1.545.595-2.34-.397.519-.962 1.37-1.696 2.554a17.438 17.438 0 01-2.09 2.92 2.211 2.211 0 01-1.52.807c-.221 0-.44-.036-.648-.107a1.495 1.495 0 01-1.223-1.372 22.61 22.61 0 01-.069-1.319c.064-1.921.261-3.836.59-5.73v-.108c-2.297 2.69-4.999 6.581-8.108 11.677a1.458 1.458 0 01-1.291.73 1.506 1.506 0 01-.619-.137c-.271-.11-.502-.3-.662-.546a1.437 1.437 0 01-.23-.826c0-.159 1.509-4.768 4.527-13.826a1.413 1.413 0 011.428-1.022c.165.002.33.03.487.083a1.395 1.395 0 011.023 1.396c0 .16-.326 1.23-.974 3.201 2.494-3.298 4.334-4.948 5.52-4.948.261-.01.521.046.755.16.258.096.491.247.683.442.193.195.341.43.433.688.147.442.225.905.229 1.372a11.014 11.014 0 01-.243 2.126l-.322 2.369a31.59 31.59 0 012.076-2.987c.93-1.148 1.851-1.723 2.748-1.723.325.006.645.078.94.215.9.519 1.35 1.398 1.35 2.636a14.405 14.405 0 01-.838 4.544 14.675 14.675 0 00-.643 3.712c-.001.262.016.524.053.784a12.26 12.26 0 001.779-2.263c2.241-3.457 4.028-5.89 5.359-7.297 1.321-1.401 2.027-2.097 2.115-2.097.253-.205.566-.32.892-.326a1.504 1.504 0 011.208.594c.211.28.325.622.327.973a1.433 1.433 0 01-.595 1.128 23.703 23.703 0 00-1.856 1.912 53.934 53.934 0 00-4.907 6.7 12.738 12.738 0 01-2.665 3.225 3.015 3.015 0 01-1.949.754"></path><path d="M183.132 53.979a2.396 2.396 0 01-1.024-.243 2.615 2.615 0 01-1.461-1.844 10.416 10.416 0 01-.244-2.112c.006-1.547.27-3.083.78-4.544.261-.762.46-1.545.594-2.34-.393.519-.958 1.37-1.696 2.554a17.381 17.381 0 01-2.09 2.92 2.22 2.22 0 01-1.52.807c-.221 0-.44-.036-.648-.107a1.498 1.498 0 01-1.223-1.372 22.266 22.266 0 01-.068-1.319c.063-1.921.26-3.836.589-5.73v-.108c-2.296 2.69-4.999 6.581-8.108 11.677a1.458 1.458 0 01-1.291.73 1.513 1.513 0 01-.619-.137 1.43 1.43 0 01-.891-1.372c0-.159 1.509-4.768 4.526-13.826a1.415 1.415 0 011.428-1.022c.166.002.33.03.487.083a1.394 1.394 0 011.023 1.396c0 .16-.326 1.23-.974 3.201 2.495-3.298 4.335-4.948 5.52-4.948.262-.01.521.046.756.16a1.885 1.885 0 011.115 1.13c.148.442.225.905.229 1.372a10.937 10.937 0 01-.243 2.126l-.322 2.369a31.59 31.59 0 012.076-2.987c.931-1.148 1.851-1.723 2.748-1.723.325.006.645.079.94.215.903.519 1.353 1.398 1.35 2.636a14.35 14.35 0 01-.838 4.544 14.675 14.675 0 00-.643 3.712c-.001.262.017.524.053.784a12.26 12.26 0 001.779-2.263c2.241-3.457 4.028-5.89 5.36-7.297 1.32-1.401 2.027-2.097 2.114-2.097.253-.205.567-.32.892-.326a1.505 1.505 0 011.208.594c.211.28.325.622.327.973a1.433 1.433 0 01-.595 1.128 23.703 23.703 0 00-1.856 1.912 54.036 54.036 0 00-4.907 6.7 12.738 12.738 0 01-2.665 3.225 3.015 3.015 0 01-1.949.754"></path><path d="M186.521 75.335c-2.563 0-3.846-1.211-3.849-3.634.041-1.19.316-2.36.809-3.444a33.995 33.995 0 013.786-6.627 69.497 69.497 0 015.033-6.295 40.633 40.633 0 014.244-4.184 395.938 395.938 0 016.008-4.84c.438-1.738.754-3.503.945-5.284-1.459.947-4.108 3.358-7.947 7.234-.975 1.077-1.909 1.615-2.802 1.615a2.066 2.066 0 01-1.617-.837 2.84 2.84 0 01-.429-1.8c0-2.351 1.137-6.493 3.411-12.425a1.416 1.416 0 011.403-.973 1.534 1.534 0 011.505 1.46 1.602 1.602 0 01-.107.564 66.305 66.305 0 00-3.069 9.842 75.874 75.874 0 016.748-6.325c1.481-1.138 2.67-1.707 3.567-1.707a2.241 2.241 0 011.915 1.046 3.67 3.67 0 01.428 1.946 22.283 22.283 0 01-.321 2.88c2.374-1.742 4.089-2.796 5.145-3.162a8.047 8.047 0 012.344-.55 2.6 2.6 0 011.885.725c.236.188.394.456.444.754v.374a1.388 1.388 0 01-.405.973c-.18.234-.437.396-.726.458l-.404.029a1.461 1.461 0 01-.862-.297c-1.183 0-3.976 1.713-8.381 5.138a73.031 73.031 0 01-5.95 16.458c-3.18 6.163-6.798 9.704-10.855 10.626a9.688 9.688 0 01-1.891.219l-.005.043zm-.073-3.03a7.918 7.918 0 001.374-.161c2.047-.503 3.927-1.862 5.642-4.077a36.072 36.072 0 004.542-7.896 80.203 80.203 0 003.279-8.99c-.393.3-1.345 1.063-2.855 2.286a44.21 44.21 0 00-6.208 6.495 52.86 52.86 0 00-4.873 7.073c-1.169 2.109-1.752 3.628-1.749 4.559-.006.184.026.368.093.54.063.141.312.214.74.214M35.947 122.761c-1.4 0-2.398-.404-2.992-1.211a2.7 2.7 0 01-.487-1.586c0-1.596 1.16-3.695 3.479-6.296 4.36-4.985 9.988-9.85 16.888-14.595-2.355-.7-5.811-1.187-10.369-1.46l-.892-.029a31.557 31.557 0 00-6.144.7l-2.475 1.533c-1.67 5.936-3.268 12.463-4.794 19.582a1.589 1.589 0 01-.556.9 1.659 1.659 0 01-.974.365 1.56 1.56 0 01-1.472-.957 1.557 1.557 0 01-.122-.604l.03-.375c1.257-5.955 2.585-11.514 3.985-16.678-5.996 3.244-10.162 4.866-12.498 4.866a3.015 3.015 0 01-1.081-.166 1.991 1.991 0 01-1.345-1.883c0-1.297 1.841-2.776 5.525-4.437a69.501 69.501 0 0110.88-3.683c4.08-14.004 8.303-25.598 12.669-34.78a1.463 1.463 0 01-.487-.321 1.628 1.628 0 010-2.262l3.717-3.712c.293-.291.689-.455 1.102-.458.351 0 .693.115.974.326a1.547 1.547 0 01.434 2.044c-.072.074-.83 1.584-2.276 4.529-1.445 2.945-3.292 7.254-5.54 12.927-2.241 5.669-4.603 12.626-7.084 20.87l.326-.077c4.223-2.618 8.493-5.55 12.81-8.796a112.942 112.942 0 0011.694-10.032c3.463-3.444 6.02-6.754 7.674-9.93 1.416-2.938 2.126-5.278 2.13-7.02 0-.088-.025-.598-.084-1.532a4.045 4.045 0 00-1.237-2.608c-2.225-2.27-6.06-3.406-11.504-3.406-.268 0-1.554 0-3.85.054-2.294.053-6.007.622-11.128 1.76a115.29 115.29 0 00-15.154 4.491 92.263 92.263 0 00-13.321 6.106C8.5 67.14 5.609 69.36 3.725 71.58a62.035 62.035 0 006.305-3.2c.193-.121.415-.187.643-.19a1.278 1.278 0 011.16.67c.119.207.184.44.19.677 0 .843-2.039 2.178-6.115 4.004-1.832.827-3.224 1.24-4.176 1.24a1.604 1.604 0 01-1.242-.54 1.543 1.543 0 01-.488-1.21 3.188 3.188 0 01.541-1.533c1.543-2.475 4.317-4.955 8.322-7.439a87.512 87.512 0 0114.038-6.884 117.377 117.377 0 0116.484-5.123 75.079 75.079 0 0116.596-2.097c6.935 0 11.586 1.685 13.954 5.055.916 1.297 1.374 2.982 1.374 5.055l-.029 1.737c-.02 1.106-.815 3.262-2.387 6.47-2.193 4.122-5.929 8.57-11.207 13.34a153.303 153.303 0 01-17.161 13.37c.448-.04.877-.054 1.291-.054l.755.024c5.568.325 9.906 1.079 13.015 2.263 5.243-3.406 9.772-6.11 13.59-8.11 3.816-2.002 5.966-3.108 6.45-3.319.172-.072.355-.11.541-.112a1.322 1.322 0 011.238.755c.068.172.105.355.107.54a1.235 1.235 0 01-.755 1.211c-.234.068-2.105 1.027-5.618 2.86-3.513 1.835-7.762 4.345-12.756 7.522 2.157 1.398 3.235 3.182 3.235 5.352a8.59 8.59 0 01-1.496 4.519 20.89 20.89 0 01-4.385 4.812 45.223 45.223 0 01-6.213 4.379 54.742 54.742 0 01-6.251 3.191c-3.09 1.297-5.525 1.946-7.309 1.946h-.02zm-17.868-18.628a40.096 40.096 0 006.924-2.958 45.792 45.792 0 00-6.924 2.958zm17.78 16.054c.828 0 2.419-.385 4.77-1.157 2.352-.772 5.415-2.341 9.19-4.705 3.177-2.102 5.564-4.139 7.162-6.11 1.3-1.622 1.95-3.056 1.95-4.301 0-.262-.028-.523-.084-.779-.233-1.041-1.23-2.014-2.991-2.919-7.471 5.021-13.452 10.087-17.94 15.199-1.742 2.063-2.684 3.605-2.827 4.627.23.123.49.179.75.16"></path><path d="M76.652 101.014c-1.991-.055-3.518-.621-4.58-1.698a6.105 6.105 0 01-1.832-4.437c0-3.1 1.67-6.033 5.009-8.796 1.55-1.272 2.923-1.907 4.122-1.907.45 0 .896.09 1.31.267.463.22.84.584 1.077 1.037.301.537.454 1.145.444 1.76a5.861 5.861 0 01-2.237 4.764 16.407 16.407 0 01-6.68 3.225c.049.73.354 1.42.862 1.946a3.274 3.274 0 002.437.861c3.18 0 7.132-2.294 11.855-6.884a1.55 1.55 0 011.052-.433 1.464 1.464 0 011.506 1.509 1.56 1.56 0 01-.43 1.05 37.226 37.226 0 01-5.359 4.544 21.077 21.077 0 01-4.663 2.433 11.792 11.792 0 01-3.864.754l-.029.005zm-2.539-9.2c3.411-1.148 5.117-2.645 5.117-4.49v-.108c-.877.16-2.135 1.082-3.772 2.769a9.96 9.96 0 00-1.345 1.829z"></path><path d="M97.097 102.761a2.192 2.192 0 01-1.627-.71 2.662 2.662 0 01-.77-1.63 16.635 16.635 0 01-.078-1.319c.005-.845.076-1.69.215-2.524l-1.462 1.693a18.427 18.427 0 01-1.613 1.761 6.41 6.41 0 01-1.978 1.425c-.43.2-.892.324-1.365.365a2.609 2.609 0 01-1.564-.564 3.631 3.631 0 01-.974-2.72c.07-1.878.537-3.72 1.374-5.405a18 18 0 013.771-5.517c1.111-1.09 2.246-1.64 3.411-1.64 1.433 0 2.548.755 3.338 2.263l.38-.03a1.587 1.587 0 011.237.594c.213.22.345.504.376.808-.038.37-.158.727-.351 1.046-1.206 3.911-1.806 6.78-1.803 8.606v.243a21.632 21.632 0 004.526-3.858c1.738-1.839 3.229-3.548 4.473-5.127.179-.264.448-.454.756-.536.151-.026.304-.044.458-.053.323.006.634.119.886.321.243.182.414.444.483.74.024.223.039.364.039.418-.002.35-.114.69-.322.973-.286.373-1.054 1.296-2.305 2.768a54.51 54.51 0 01-4.268 4.466c-1.601 1.508-3.063 2.504-4.385 2.987a2.566 2.566 0 01-.862.161l.004-.005zm-8.288-4.218c.434-.214 1.184-.949 2.266-2.204 2.228-2.617 3.718-4.429 4.468-5.434a1.217 1.217 0 01-.16-.38 3.755 3.755 0 00-.361-.973 1.241 1.241 0 00-.526-.579h-.03c-.52 0-1.3.61-2.343 1.83a15.136 15.136 0 00-2.505 4.315 10.888 10.888 0 00-.809 3.406"></path><path d="M106.151 104.215a2.052 2.052 0 01-1.589-.783c-.324-.354-.487-.981-.487-1.883 0-2.578 1.239-7.24 3.718-13.987a1.462 1.462 0 011.949-.856 1.352 1.352 0 01.974 1.396c-.002.173-.03.346-.082.511-1.813 4.865-2.961 8.72-3.445 11.564.141-.144.274-.295.399-.452 2.768-3.282 4.727-5.75 5.877-7.4a13.389 13.389 0 011.71-2.126c.302-.313.71-.504 1.145-.535.213.004.423.048.619.131.609.273.945.623 1.008 1.066.06.378.092.76.098 1.143-.003.405-.031.81-.083 1.211-.094 1.18-.14 2.21-.137 3.09 0 1.829.156 3.05.458 3.658a6.983 6.983 0 001.428-1.343c2.427-2.87 4.497-5.243 6.212-7.117a396.242 396.242 0 012.705-2.944 1.24 1.24 0 01.784-.457h.346a1.575 1.575 0 011.486 1.46 1.59 1.59 0 01-.433 1.08c-.088.087-.975 1.055-2.666 2.919a293.2 293.2 0 00-6.144 7.02c-1.364 1.667-2.639 2.501-3.825 2.501a2.934 2.934 0 01-1.023-.19c-1.546-.409-2.318-2.679-2.314-6.811v-.565c-1.15 1.596-2.812 3.66-4.985 6.189-1.329 1.622-2.56 2.465-3.693 2.53"></path><path d="M137.372 129.202a4.124 4.124 0 01-2.397-.579 3.22 3.22 0 01-1.13-1.328 4.367 4.367 0 01-.322-1.723 11.176 11.176 0 011.077-4.062 32.812 32.812 0 013.542-6.013 69.587 69.587 0 015.038-6.296 40.606 40.606 0 014.24-4.179 547.753 547.753 0 016.007-4.865c.43-1.742.736-3.513.916-5.298-1.344.847-3.984 3.26-7.917 7.239-.975 1.074-1.909 1.611-2.802 1.611a2.019 2.019 0 01-1.642-.861 2.967 2.967 0 01-.434-1.83c.018-.73.099-1.458.244-2.174-1.563 2.238-3.395 4.694-5.496 7.37-2.982 3.892-5.354 5.838-7.114 5.838-1.881 0-2.823-1.532-2.826-4.597 0-2.222.552-5.679 1.656-10.373 1.105-4.693 2.869-11.07 5.292-19.134l-.346-.058a1.623 1.623 0 01-.892-.725 1.35 1.35 0 01-.19-.7c0-.302.414-1.757 1.243-4.355a86.133 86.133 0 00-5.175 1.022c-.219.27-.523.46-.862.54-4.486 1.034-6.76 1.553-6.822 1.556a1.538 1.538 0 01-1.427-1.045 2.2 2.2 0 01-.054-.458 1.412 1.412 0 01.94-1.4 46.764 46.764 0 015.687-1.655c2.621-.649 5.544-1.236 8.77-1.761 1.761-5.092 3.222-7.773 4.385-8.042.16-.035.324-.053.488-.054a1.63 1.63 0 011.427.754c.175.263.269.57.268.886-.007.26-.03.52-.068.778-.096.58-.221 1.155-.375 1.723-.21.807-.487 1.882-.906 3.23a54.966 54.966 0 016.343-.399c.523 0 1.488.021 2.895.063a7.158 7.158 0 013.756 1.144 1.488 1.488 0 01.648 1.24 1.496 1.496 0 01-1.51 1.503 1.531 1.531 0 01-.862-.291c-.77-.487-2.216-.73-4.337-.73h-1.832c-2.027.09-4.049.282-6.057.579l-1.081 3.498c-5.383 17.806-8.077 28.709-8.084 32.708-.008.478.038.957.137 1.425.789-.289 2.298-1.813 4.526-4.573 3.505-4.518 6.222-8.32 8.152-11.404 1.93-3.084 2.922-4.706 2.977-4.865a1.427 1.427 0 011.291-.778c.253.005.502.068.726.185a1.464 1.464 0 01.78 1.294l-.024.428a1.807 1.807 0 01-.083.51 61.13 61.13 0 00-3.07 9.848 75.992 75.992 0 017.085-6.563c1.257-.974 2.335-1.46 3.235-1.46a2.06 2.06 0 01.887.19c.974.376 1.462 1.362 1.462 2.958-.062.92-.179 1.837-.351 2.744 3.41-2.477 6.524-3.83 8.088-4.18a36.484 36.484 0 015.813-.583c5.954.097 10.013 3.181-.945 3.03a28.168 28.168 0 00-5.535.789c-1.647.423-3.967 1.946-8.367 5.381a71.582 71.582 0 01-5.934 16.507c-3.145 6.13-6.763 9.672-10.856 10.625-.63.132-1.271.204-1.915.214l.019-.019zm-.073-2.968a7.563 7.563 0 001.35-.16c2.066-.5 3.955-1.857 5.667-4.073a36.31 36.31 0 004.541-7.896 77.049 77.049 0 003.26-9.063c-.717.608-1.15.973-1.292 1.046l-1.534 1.265a44.435 44.435 0 00-6.213 6.495 56.26 56.26 0 00-5.048 7.385c-1.033 1.871-1.549 3.272-1.549 4.203-.008.193.023.385.092.565.064.146.312.214.741.214"></path></svg>
